<?xml version="1.0" encoding="UTF-8"?>
<svg width="24px" height="24px" viewBox="0 0 24 24" version="1.1" xmlns="http://www.w3.org/2000/svg">
    <g stroke="none" stroke-width="1" fill="none" fill-rule="evenodd">
        <g id="audio-icon" fill="#FFFFFF">
            <!-- Headphones base -->
            <path d="M12,3 C7.03,3 3,7.03 3,12 L3,21 L6,21 L6,12 C6,8.69 8.69,6 12,6 C15.31,6 18,8.69 18,12 L18,21 L21,21 L21,12 C21,7.03 16.97,3 12,3 Z M9,21 L9,12 C9,10.34 10.34,9 12,9 C13.66,9 15,10.34 15,12 L15,21 L9,21 Z" />
            
            <!-- Sound waves -->
            <path d="M18.5,12 C18.5,10.23 17.48,8.71 16,7.97 L16,9.76 C16.64,10.23 17.1,11.07 17.1,12 L18.5,12 Z" />
            <path d="M15,9.76 L15,5.22 C12.4,5.22 10.26,6.1 9,7.97 L9,9.76 C9.65,8.71 10.72,8 12,8 C13.28,8 14.35,8.71 15,9.76 Z" />
            
            <!-- Volume indicator -->
            <circle cx="6" cy="17" r="2" />
            <circle cx="18" cy="17" r="2" />
        </g>
    </g>
</svg> 